<?xml version="1.0"?>
<svg xmlns="http://www.w3.org/2000/svg" viewBox="0 0 24 24">
    <path d="M 2 6 L 2 18 L 8 18 L 8 6 L 2 6 z M 9 6 L 9 18 L 15 18 L 15 6 L 9 6 z M 16 6 L 16 18 L 22 18 L 22 6 L 16 6 z M 4 8 L 6 8 C 6.552 8 7 8.448 7 9 L 7 15 C 7 15.552 6.552 16 6 16 L 4 16 C 3.448 16 3 15.552 3 15 L 3 9 C 3 8.448 3.448 8 4 8 z M 11 8 L 13 8 C 13.552 8 14 8.448 14 9 L 14 15 C 14 15.552 13.552 16 13 16 L 11 16 C 10.448 16 10 15.552 10 15 L 10 9 C 10 8.448 10.448 8 11 8 z M 17 8 L 18 8 C 18 8.552 18.448 9 19 9 C 19.552 9 20 8.552 20 8 L 21 8 C 21 9.105 20.105 10 19 10 C 17.895 10 17 9.105 17 8 z M 5 9 C 4.448 9 4 9.448 4 10 L 4 14 C 4 14.552 4.448 15 5 15 C 5.552 15 6 14.552 6 14 L 6 10 C 6 9.448 5.552 9 5 9 z M 12 9 C 11.448 9 11 9.448 11 10 L 11 14 C 11 14.552 11.448 15 12 15 C 12.552 15 13 14.552 13 14 L 13 10 C 13 9.448 12.552 9 12 9 z M 17 12 L 21 12 L 21 13 L 19.28125 16 L 18 16 L 19.6875 13 L 17 13 L 17 12 z"/>
</svg>
