<?xml version="1.0" encoding="UTF-8" standalone="no"?>
<svg
   xmlns:dc="http://purl.org/dc/elements/1.1/"
   xmlns:cc="http://creativecommons.org/ns#"
   xmlns:rdf="http://www.w3.org/1999/02/22-rdf-syntax-ns#"
   xmlns:svg="http://www.w3.org/2000/svg"
   xmlns="http://www.w3.org/2000/svg"
   xmlns:sodipodi="http://sodipodi.sourceforge.net/DTD/sodipodi-0.dtd"
   xmlns:inkscape="http://www.inkscape.org/namespaces/inkscape"
   id="Layer_1"
   enable-background="new 0 0 512 512"
   height="512"
   viewBox="0 0 512 512"
   width="512"
   version="1.1"
   sodipodi:docname="virus.svg"
   inkscape:version="0.92.4 (5da689c313, 2019-01-14)">
  <metadata
     id="metadata35">
    <rdf:RDF>
      <cc:Work
         rdf:about="">
        <dc:format>image/svg+xml</dc:format>
        <dc:type
           rdf:resource="http://purl.org/dc/dcmitype/StillImage" />
      </cc:Work>
    </rdf:RDF>
  </metadata>
  <defs
     id="defs33" />
  <sodipodi:namedview
     pagecolor="#ffffff"
     bordercolor="#666666"
     borderopacity="1"
     objecttolerance="10"
     gridtolerance="10"
     guidetolerance="10"
     inkscape:pageopacity="0"
     inkscape:pageshadow="2"
     inkscape:window-width="1920"
     inkscape:window-height="1001"
     id="namedview31"
     showgrid="false"
     inkscape:zoom="0.921875"
     inkscape:cx="333.87895"
     inkscape:cy="400.28547"
     inkscape:window-x="-9"
     inkscape:window-y="-9"
     inkscape:window-maximized="1"
     inkscape:current-layer="Layer_1" />
  <g
     id="g28">
    <path
       d="m500.879 289.165c-7.72-2.07-16.152 2.326-18.371 10.606l-.347 1.296-34.708-9.3c2.162-11.599 3.304-23.552 3.304-35.768 0-12.217-1.143-24.171-3.305-35.771l34.708-9.3.347 1.296c2.219 8.281 10.652 12.676 18.371 10.606 8.002-2.144 12.751-10.369 10.606-18.371l-8.459-31.569c-2.145-8.002-10.365-12.752-18.371-10.606-8.002 2.144-12.75 10.369-10.606 18.371l.347 1.296-34.718 9.303c-8.09-22.882-20.335-43.815-35.834-61.884l25.481-25.481.949.949c5.856 5.857 15.355 5.859 21.213 0 5.858-5.858 5.858-15.355 0-21.213l-23.11-23.11c-5.857-5.858-15.355-5.858-21.213 0s-5.858 15.355 0 21.213l.949.949-25.481 25.48c-18.071-15.5-39.005-27.746-61.888-35.835l9.302-34.716 1.296.347c8.314 2.228 16.314-2.928 18.371-10.606 2.144-8.002-2.604-16.227-10.606-18.371l-31.569-8.459c-8.003-2.145-16.228 2.605-18.371 10.606-2.144 8.002 2.604 16.227 10.606 18.371l1.296.347-9.3 34.708c-11.599-2.162-23.552-3.304-35.768-3.304s-24.169 1.142-35.768 3.304l-9.3-34.708 1.296-.347c8.002-2.144 12.75-10.369 10.606-18.371-2.143-8.003-10.368-12.753-18.37-10.608l-31.569 8.459c-8.002 2.144-12.75 10.369-10.606 18.371 2.057 7.679 10.057 12.835 18.371 10.606l1.296-.347 9.302 34.716c-22.883 8.09-43.817 20.335-61.888 35.835l-25.481-25.48.949-.949c5.858-5.858 5.858-15.355 0-21.213-5.857-5.858-15.355-5.858-21.213 0l-23.11 23.11c-5.858 5.858-5.858 15.355 0 21.213 5.858 5.859 15.357 5.857 21.213 0l.949-.949 25.481 25.481c-15.499 18.07-27.744 39.003-35.834 61.884l-34.718-9.303.347-1.296c2.144-8.002-2.604-16.227-10.606-18.371-8.006-2.146-16.227 2.604-18.371 10.606l-8.461 31.572c-2.144 8.002 2.604 16.227 10.606 18.371 7.72 2.07 16.152-2.326 18.371-10.606l.347-1.296 34.708 9.3c-2.162 11.6-3.305 23.554-3.305 35.771 0 12.216 1.142 24.169 3.304 35.768l-34.708 9.3-.347-1.296c-2.219-8.281-10.652-12.676-18.371-10.606-8.002 2.144-12.75 10.369-10.606 18.371l8.459 31.569c2.145 8.002 10.365 12.752 18.371 10.606 8.002-2.144 12.75-10.369 10.606-18.371l-.347-1.296 34.716-9.302c8.09 22.883 20.335 43.817 35.835 61.888l-25.481 25.481-.949-.949c-5.856-5.857-15.355-5.859-21.213 0-5.858 5.858-5.858 15.355 0 21.213l23.11 23.11c5.857 5.858 15.355 5.858 21.213 0s5.858-15.355 0-21.213l-.949-.949 25.481-25.48c18.071 15.5 39.005 27.746 61.888 35.835l-9.302 34.716-1.296-.347c-8.314-2.228-16.314 2.928-18.371 10.606-2.144 8.002 2.604 16.227 10.606 18.371l31.569 8.459c8.003 2.145 16.228-2.605 18.371-10.606 2.144-8.002-2.604-16.227-10.606-18.371l-1.296-.347 9.3-34.708c11.599 2.162 23.552 3.304 35.768 3.304s24.169-1.142 35.768-3.304l9.3 34.708-1.296.347c-8.002 2.144-12.75 10.369-10.606 18.371 2.144 8.001 10.368 12.751 18.371 10.606l31.569-8.459c8.002-2.144 12.75-10.369 10.606-18.371-2.057-7.679-10.057-12.835-18.371-10.606l-1.296.347-9.302-34.716c22.883-8.09 43.817-20.335 61.888-35.835l25.481 25.48-.949.949c-5.858 5.858-5.858 15.355 0 21.213 5.857 5.858 15.355 5.858 21.213 0l23.11-23.11c5.858-5.858 5.858-15.355 0-21.213-5.858-5.859-15.357-5.857-21.213 0l-.949.949-25.481-25.481c15.5-18.071 27.746-39.005 35.835-61.888l34.716 9.302-.347 1.296c-2.144 8.002 2.604 16.227 10.606 18.371 8.006 2.146 16.227-2.604 18.371-10.606l8.459-31.569c2.149-8.003-2.599-16.228-10.601-18.372zm-244.879 131.592c-90.847 0-164.757-73.91-164.757-164.757s73.91-164.757 164.757-164.757 164.757 73.91 164.757 164.757-73.91 164.757-164.757 164.757z"
       id="path2" />
    <circle
       cx="256"
       cy="143.533"
       r="15"
       id="circle4" />
    <circle
       cx="256"
       cy="368.467"
       r="15"
       id="circle6" />
    <circle
       cx="223.867"
       cy="288.133"
       r="15"
       id="circle8" />
    <circle
       cx="288.133"
       cy="288.133"
       r="15"
       id="circle10" />
    <circle
       cx="288.133"
       cy="223.867"
       r="15"
       id="circle12" />
    <circle
       cx="223.867"
       cy="223.867"
       r="15"
       id="circle14" />
    <circle
       cx="368.467"
       cy="256"
       r="15"
       id="circle16" />
    <circle
       cx="143.533"
       cy="256"
       r="15"
       id="circle18" />
    <circle
       cx="335.526"
       cy="176.478"
       r="15"
       id="circle20" />
    <circle
       cx="176.474"
       cy="335.53"
       r="15"
       id="circle22" />
    <circle
       cx="335.526"
       cy="335.53"
       r="15"
       id="circle24" />
    <circle
       cx="176.474"
       cy="176.478"
       r="15"
       id="circle26" />
  </g>
  <path
     style="fill:#ffffff;fill-opacity:1;stroke:#ff0000;stroke-width:0.27118644;stroke-miterlimit:4;stroke-dasharray:none;stroke-opacity:1"
     d="m 364.83895,270.19183 c -10.52446,-2.85365 -14.54123,-15.68313 -7.43708,-23.75387 3.05409,-3.46963 6.3869,-4.9542 11.14023,-4.9623 5.92518,-0.0101 10.46703,2.8029 13.05019,8.08268 1.81261,3.70485 1.95355,8.70311 0.34776,12.33326 -2.85432,6.45266 -10.40283,10.11642 -17.1011,8.30023 z"
     id="path848"
     inkscape:connector-curvature="0" />
  <path
     style="fill:#ffffff;fill-opacity:1;stroke:#ff0000;stroke-width:0.27118644;stroke-miterlimit:4;stroke-dasharray:none;stroke-opacity:1"
     d="m 282.91633,237.62401 c -7.02472,-2.50401 -11.12178,-11.03731 -8.7409,-18.20545 1.11318,-3.35149 4.38612,-7.16464 7.52336,-8.76515 3.0441,-1.55298 7.67857,-1.87143 11.03091,-0.75796 12.59343,4.18287 13.39284,21.90102 1.23613,27.39752 -2.88168,1.30291 -7.90116,1.45329 -11.0495,0.33104 z"
     id="path850"
     inkscape:connector-curvature="0" />
  <path
     style="fill:#ffffff;fill-opacity:1;stroke:#ff0000;stroke-width:0.27118644;stroke-miterlimit:4;stroke-dasharray:none;stroke-opacity:1"
     d="m 330.83057,190.40082 c -5.63602,-1.7374 -9.88318,-7.73639 -9.87992,-13.95509 0.002,-4.07744 0.96813,-6.56687 3.74214,-9.64385 6.85553,-7.60429 19.36593,-6.07889 23.74707,2.89549 3.08581,6.32102 2.19987,12.11978 -2.58229,16.90194 -4.32143,4.32143 -9.27515,5.57461 -15.027,3.80151 z"
     id="path852"
     inkscape:connector-curvature="0" />
  <path
     style="fill:#ffffff;fill-opacity:1;stroke:#ff0000;stroke-width:0.27118644;stroke-miterlimit:4;stroke-dasharray:none;stroke-opacity:1"
     d="m 250.60505,157.21204 c -1.37241,-0.48455 -3.49523,-1.93506 -4.92626,-3.3661 -7.14365,-7.14364 -5.07613,-19.11299 4.08365,-23.64125 3.00844,-1.48726 9.46258,-1.49024 12.45659,-0.006 4.77332,2.36672 7.91763,7.0186 8.31623,12.30357 0.80555,10.68065 -9.59656,18.35795 -19.93021,14.70954 z"
     id="path854"
     inkscape:connector-curvature="0" />
  <path
     style="fill:#ffffff;fill-opacity:1;stroke:#ff0000;stroke-width:0.27118644;stroke-miterlimit:4;stroke-dasharray:none;stroke-opacity:1"
     d="m 218.03362,237.29297 c -9.80944,-4.43521 -11.78428,-17.67239 -3.67242,-24.61585 4.3104,-3.68954 11.00748,-4.53981 15.93945,-2.02371 3.13725,1.60051 6.41019,5.41366 7.52337,8.76515 2.42379,7.29735 -1.67809,15.625 -8.96214,18.19497 -3.24557,1.1451 -7.89077,1.00758 -10.82826,-0.32056 z"
     id="path856"
     inkscape:connector-curvature="0" />
  <path
     style="fill:#ffffff;fill-opacity:1;stroke:#ff0000;stroke-width:0.27118644;stroke-miterlimit:4;stroke-dasharray:none;stroke-opacity:1"
     d="m 171.40429,190.29201 c -1.46802,-0.51813 -3.54195,-1.97224 -5.25227,-3.68256 -4.82744,-4.82744 -5.75054,-11.2351 -2.48335,-17.23801 4.75607,-8.73847 16.88761,-10.05722 23.63799,-2.56956 2.76995,3.07248 3.68632,5.44424 3.71032,9.60307 0.0589,10.2132 -9.94744,17.29836 -19.61269,13.88706 z"
     id="path858"
     inkscape:connector-curvature="0" />
  <path
     style="fill:#ffffff;fill-opacity:1;stroke:#ff0000;stroke-width:0.27118644;stroke-miterlimit:4;stroke-dasharray:none;stroke-opacity:1"
     d="m 140.65133,270.40778 c -9.41389,-1.90939 -14.4764,-12.19907 -10.25101,-20.83545 2.59014,-5.29406 7.12606,-8.10679 13.05703,-8.09667 6.73626,0.0115 12.08783,3.90574 14.08262,10.2477 3.27195,10.40236 -6.17777,20.85687 -16.88864,18.68442 z"
     id="path860"
     inkscape:connector-curvature="0" />
  <path
     style="fill:#ffffff;fill-opacity:1;stroke:#ff0000;stroke-width:0.27118644;stroke-miterlimit:4;stroke-dasharray:none;stroke-opacity:1"
     d="m 220.38317,302.44239 c -6.40171,-1.52479 -11.02751,-7.35883 -11.02751,-13.90784 0,-4.38665 0.95317,-7.00312 3.63979,-9.99129 3.18368,-3.54101 6.2039,-4.93651 10.68391,-4.93651 5.89203,0 10.59604,2.78654 13.12335,7.77395 3.06312,6.04476 2.07703,12.19644 -2.72474,16.99822 -3.93686,3.93685 -8.51866,5.29634 -13.6948,4.06347 z"
     id="path862"
     inkscape:connector-curvature="0" />
  <path
     style="fill:#ffffff;fill-opacity:1;stroke:#ff0000;stroke-width:0.27118644;stroke-miterlimit:4;stroke-dasharray:none;stroke-opacity:1"
     d="m 170.576,348.87011 c -9.20428,-4.3051 -11.69386,-15.69727 -5.01406,-22.944 3.44831,-3.74097 5.8176,-4.77338 10.98016,-4.78455 3.73492,-0.008 4.67876,0.19152 6.77966,1.43375 5.02366,2.97042 7.70169,7.46636 7.70169,12.92975 0,10.58964 -11.00386,17.78209 -20.44745,13.36505 z"
     id="path864"
     inkscape:connector-curvature="0" />
  <path
     style="fill:#ffffff;fill-opacity:1;stroke:#ff0000;stroke-width:0.27118644;stroke-miterlimit:4;stroke-dasharray:none;stroke-opacity:1"
     d="m 283.45205,302.10607 c -3.79044,-1.21031 -8.09655,-5.62302 -9.238,-9.46671 -1.06714,-3.59344 -1.07955,-5.54865 -0.0571,-8.99176 1.74864,-5.88833 7.5331,-10.04085 13.9869,-10.04085 4.50514,0 7.75176,1.47929 10.87803,4.95645 2.69266,2.99489 3.62186,5.59085 3.62186,10.11863 0,9.55662 -9.81133,16.41945 -19.19174,13.42424 z"
     id="path866"
     inkscape:connector-curvature="0" />
  <path
     style="fill:#ffffff;fill-opacity:1;stroke:#ff0000;stroke-width:0.27118644;stroke-miterlimit:4;stroke-dasharray:none;stroke-opacity:1"
     d="m 251.85518,382.67477 c -3.56145,-1.0998 -6.88951,-3.9861 -8.79194,-7.62491 -1.67926,-3.21194 -1.79945,-3.7724 -1.57666,-7.35188 0.50702,-8.1461 6.3965,-13.71981 14.51314,-13.73504 8.02612,-0.0151 13.9442,5.51992 14.52096,13.58096 0.41695,5.82746 -2.37651,10.96703 -7.46654,13.73737 -3.12996,1.70354 -8.16582,2.33016 -11.19896,1.3935 z"
     id="path868"
     inkscape:connector-curvature="0" />
  <path
     style="fill:#ffffff;fill-opacity:1;stroke:#ff0000;stroke-width:0.27118644;stroke-miterlimit:4;stroke-dasharray:none;stroke-opacity:1"
     d="m 329.49125,348.85431 c -11.06383,-5.23932 -11.38035,-20.7279 -0.54237,-26.53994 3.08555,-1.65467 9.92433,-1.65372 13.04133,0.002 5.33308,2.83257 8.91861,9.26776 8.17728,14.67632 -1.37578,10.03743 -11.84532,16.04372 -20.67624,11.8618 z"
     id="path870"
     inkscape:connector-curvature="0" />
  <path
     style="fill:#ffffff;fill-opacity:1;stroke:#ff0000;stroke-width:0.27118644;stroke-miterlimit:4;stroke-dasharray:none;stroke-opacity:1"
     d="m 188.38822,506.98968 c -18.29526,-4.99964 -20.44284,-5.87614 -23.17529,-9.45857 -2.14099,-2.80699 -3.04748,-5.50127 -3.00245,-8.92389 0.0744,-5.65528 2.7733,-10.24499 7.58487,-12.89877 2.66581,-1.47031 3.40712,-1.62392 7.69182,-1.59384 3.84515,0.027 4.7906,-0.12684 5.00035,-0.81356 2.15604,-7.05877 8.85301,-33.44187 8.55677,-33.70989 -0.22028,-0.19929 -3.32931,-1.52171 -6.90897,-2.93871 -17.15525,-6.79086 -34.56004,-16.94503 -49.43533,-28.84117 -2.72842,-2.18198 -5.17105,-3.96724 -5.42806,-3.96724 -0.25702,0 -6.18289,5.71947 -13.16862,12.70994 l -12.70131,12.70995 1.97211,2.18289 c 8.05226,8.91289 1.3775,23.92264 -10.638288,23.92264 -6.401296,0 -6.374047,0.019 -21.696087,-15.14792 -7.877158,-7.79743 -14.492469,-14.8016 -15.111013,-15.99926 -4.807663,-9.30886 2.386571,-20.94141 12.98271,-20.99209 3.710833,-0.0177 7.971785,1.54244 9.943029,3.64073 0.67796,0.72166 1.497144,1.3121 1.820404,1.3121 0.323265,0 6.286346,-5.70246 13.251297,-12.67214 L 108.5897,382.83872 103.889,376.9346 C 91.888462,361.86181 82.080679,344.92774 74.99122,327.03983 l -2.602652,-6.56693 -17.346962,4.637 -17.346966,4.63701 v 4.91297 c 0,5.58354 -0.827259,7.87356 -3.985,11.03131 -6.679639,6.67963 -17.787725,5.16643 -23.039091,-3.13853 C 9.1722066,340.18306 0.45894653,306.84849 0.44557905,303.4347 0.40775646,293.77559 9.7803075,286.89715 19.234609,289.64559 c 3.822521,1.11124 8.406913,5.32426 9.496192,8.72694 0.378454,1.18221 0.841666,2.31973 1.029358,2.52782 0.314542,0.34872 34.077597,-8.44236 34.659807,-9.02457 0.142042,-0.14205 -0.133337,-2.89204 -0.611954,-6.11111 -1.702547,-11.4509 -2.128792,-17.40115 -2.128792,-29.71724 0,-12.3161 0.426245,-18.26634 2.128792,-29.71725 0.478617,-3.21906 0.722853,-6.0002 0.542742,-6.18031 -0.298392,-0.29839 -33.685356,-9.39058 -34.482679,-9.39058 -0.188869,0 -0.662073,1.07929 -1.051565,2.39841 -2.053259,6.95396 -10.448839,11.39338 -17.609695,9.31166 C 4.7803172,220.60112 0.43820522,215.09154 0.42076744,208.78324 0.41022854,204.97069 9.1110931,172.07682 10.892551,169.19436 c 6.119049,-9.90083 20.653066,-9.24141 25.74597,1.16811 1.275776,2.60759 1.418093,3.45272 1.248049,7.4114 l -0.19193,4.46818 16.542373,4.46148 c 9.098305,2.45382 16.944276,4.47698 17.435487,4.49591 0.640206,0.0247 1.466457,-1.46303 2.917825,-5.25371 6.469549,-16.89716 17.641004,-36.33603 29.105915,-50.64571 l 4.8651,-6.07227 -12.649361,-12.65796 c -6.957147,-6.96187 -12.913849,-12.65795 -13.237114,-12.65795 -0.32326,0 -1.142444,0.59044 -1.820404,1.31209 -0.677955,0.72166 -2.480179,1.84877 -4.00493,2.50471 -3.865969,1.66309 -9.483011,1.32692 -13.083363,-0.78303 -4.849768,-2.84215 -7.779574,-8.571233 -7.209237,-14.097281 0.521443,-5.05229 1.902156,-6.870844 15.772177,-20.773738 14.700903,-14.735745 15.856694,-15.550834 22.043498,-15.545562 4.362945,0.0038 8.171584,1.781744 11.070034,5.16794 2.03504,2.377476 3.57403,6.425731 3.57403,9.401307 0,2.986419 -1.54179,7.027097 -3.59785,9.429142 l -1.99517,2.330913 12.82959,12.829581 c 9.82007,9.820088 13.00395,12.702888 13.57293,12.289468 0.40884,-0.29707 3.15497,-2.44884 6.10251,-4.78173 14.62118,-11.572188 34.03712,-22.622748 50.64732,-28.825862 2.23728,-0.83552 4.2572,-1.687907 4.4887,-1.894194 0.2315,-0.206286 -1.66003,-8.117347 -4.20339,-17.580138 -2.54336,-9.462791 -4.6243,-17.280299 -4.6243,-17.372239 0,-0.09194 -1.23575,0.07717 -2.74611,0.375811 -6.87455,1.359267 -14.41205,-3.093421 -16.69901,-9.864737 -2.18762,-6.477205 1.01909,-14.332295 7.13816,-17.485478 2.9021,-1.4954657 35.86086,-10.2301976 38.6016,-10.2301976 5.02822,0 9.91188,2.8823616 12.5707,7.4192965 1.09251,1.8642262 1.50249,3.4236281 1.69702,6.4546711 0.22696,3.536605 0.0885,4.339911 -1.20294,6.979547 -1.67696,3.427574 -4.85126,6.381312 -8.25463,7.68107 -1.29746,0.495507 -2.35906,1.172849 -2.35911,1.505203 -1.4e-4,1.007781 8.77741,33.663524 9.14733,34.031442 0.18936,0.188328 3.19499,-0.09751 6.6792,-0.635194 18.20826,-2.809915 38.38607,-2.88684 57.12271,-0.217774 3.28135,0.467433 6.4391,0.895566 7.01721,0.951404 0.93358,0.09017 1.55136,-1.74822 5.5249,-16.440852 2.46058,-9.098305 4.48927,-16.936333 4.5082,-17.41784 0.0215,-0.548007 -0.84794,-1.212447 -2.3246,-1.776389 -3.40336,-1.299758 -6.57766,-4.253496 -8.25462,-7.68107 -1.29145,-2.639636 -1.4299,-3.442942 -1.20294,-6.979547 0.19452,-3.031043 0.60451,-4.5904449 1.69702,-6.4546711 2.65882,-4.5369349 7.54248,-7.4192965 12.5707,-7.4192965 2.74074,0 35.6995,8.7347319 38.6016,10.2301976 11.08587,5.712599 9.95655,22.231818 -1.82111,26.638406 -3.17376,1.187456 -5.27702,1.336593 -8.45196,0.599304 -1.11864,-0.259774 -2.03389,-0.390494 -2.03389,-0.290489 0,0.100005 -2.07731,7.930552 -4.61625,17.401217 -2.53893,9.470666 -4.43045,17.384543 -4.20339,17.586398 0.22707,0.201855 2.24337,1.050619 4.48065,1.886139 16.61019,6.203114 36.02614,17.253674 50.64731,28.825862 2.94755,2.33289 5.69368,4.48466 6.10252,4.78173 0.56898,0.41342 3.75286,-2.46938 13.57293,-12.289468 l 12.82959,-12.829581 -1.99517,-2.330913 c -2.05606,-2.402045 -3.59785,-6.442723 -3.59785,-9.429142 0,-2.975576 1.53899,-7.023831 3.57403,-9.401307 2.89845,-3.386196 6.70709,-5.164219 11.07003,-5.16794 6.18681,-0.0054 7.3426,0.809817 22.0435,15.545562 8.26689,8.286481 13.55913,14.025177 14.35507,15.566058 1.79998,3.484643 1.81206,9.585611 0.0258,13.016951 -2.66742,5.12397 -6.38214,7.60649 -11.98142,8.00711 -4.39053,0.31415 -6.78369,-0.37417 -10.09863,-2.90452 -1.33179,-1.01659 -2.60434,-1.84835 -2.82787,-1.84835 -0.22353,0 -6.10965,5.7071 -13.08026,12.68246 l -12.67385,12.68246 3.51009,4.26669 c 11.64627,14.15664 23.30676,34.02781 29.95421,51.04635 1.8683,4.78317 2.84324,6.63674 3.4809,6.61789 0.48714,-0.0144 8.32979,-2.04124 17.4281,-4.50408 l 16.54237,-4.47789 -0.19193,-4.46002 c -0.16998,-3.94997 -0.0273,-4.79661 1.24805,-7.40323 3.16849,-6.47617 10.32333,-9.67927 17.17295,-7.68803 3.22762,0.9383 6.8047,3.65872 8.57302,6.51992 1.80096,2.91401 10.35045,35.45111 10.35045,39.39106 0,5.75122 -2.84849,10.31608 -8.02283,12.85701 -7.85366,3.85667 -17.87743,-0.24396 -20.25158,-8.28473 -0.38949,-1.31912 -0.86269,-2.39841 -1.05156,-2.39841 -0.79733,0 -34.18429,9.09219 -34.48268,9.39058 -0.18012,0.18011 0.0641,2.96125 0.54274,6.18031 2.95554,19.87825 2.95719,39.69077 0.005,59.43449 -0.48135,3.21907 -0.75895,5.96906 -0.61691,6.11111 0.58221,0.58221 34.34527,9.37329 34.65981,9.02457 0.18769,-0.20809 0.6509,-1.34561 1.02936,-2.52782 1.08928,-3.40268 5.67367,-7.6157 9.49619,-8.72694 7.23806,-2.10417 14.53474,1.26547 17.67972,8.16455 1.87042,4.10312 1.42023,7.34969 -3.61906,26.09877 -2.54752,9.47826 -5.09314,17.97842 -5.65692,18.88925 -4.95201,8.00021 -16.33481,9.43699 -22.88338,2.88842 -1.0388,-1.03881 -2.44804,-3.07859 -3.13162,-4.53286 -1.06035,-2.2558 -1.20912,-3.28741 -1.01297,-7.0244 l 0.2299,-4.38029 -17.37968,-4.63841 -17.37967,-4.63843 -2.60279,6.56728 c -7.08961,17.88828 -16.89729,34.82222 -28.89793,49.89513 l -4.70069,5.90412 12.66354,12.67216 c 6.96502,6.96968 12.87083,12.67214 13.1241,12.67214 0.25326,0 1.41268,-0.81505 2.57648,-1.81122 5.63208,-4.82084 14.99307,-4.04501 20.0137,1.65872 3.92906,4.46366 4.87517,11.1731 2.28323,16.19176 -0.61855,1.19766 -7.23386,8.20183 -15.11102,15.99926 -15.32204,15.16695 -15.29479,15.14792 -21.69608,15.14792 -12.01579,0 -18.69055,-15.00975 -10.63829,-23.92264 l 1.97211,-2.18289 -12.70131,-12.70995 c -6.98573,-6.99047 -12.90551,-12.70994 -13.15506,-12.70994 -0.24956,0 -2.20405,1.42427 -4.34331,3.16505 -14.347,11.67455 -33.54896,22.94073 -50.53364,29.6491 -3.57966,1.41384 -6.69062,2.7356 -6.91324,2.93724 -0.29967,0.27142 6.44677,26.83852 8.5592,33.70562 0.2112,0.68659 1.15778,0.84054 5.00219,0.81356 4.26951,-0.03 5.0292,0.12599 7.62903,1.56615 9.87772,5.47173 10.36585,19.19544 0.89635,25.20082 -1.62919,1.0332 -7.61352,2.87926 -20.27611,6.25482 -20.04543,5.34365 -21.02466,5.44275 -26.16059,2.64743 -10.86896,-5.91563 -9.71658,-22.04592 1.89173,-26.47917 1.58968,-0.60711 2.51572,-1.28799 2.50166,-1.83939 -0.0123,-0.48151 -2.03473,-8.31954 -4.49432,-17.41784 -3.97135,-14.6904 -4.59123,-16.53578 -5.537,-16.48346 -0.58575,0.0324 -5.09212,0.59253 -10.01415,1.24471 -17.06203,2.2608 -37.09425,2.07733 -53.84022,-0.49309 -3.64889,-0.56009 -6.79259,-0.84955 -6.98597,-0.64325 -0.40213,0.42897 -9.13991,32.90331 -9.13991,33.96885 0,0.38475 1.13579,1.13331 2.52398,1.66347 11.63975,4.44526 12.73024,20.58011 1.79324,26.53277 -5.13047,2.79235 -6.99488,2.59506 -26.91178,-2.84775 z m 87.10227,-87.19224 c 47.08628,-5.44872 90.68047,-32.03899 117.10962,-71.43099 14.65443,-21.84207 22.98893,-43.63145 27.01391,-70.62411 1.47829,-9.91384 1.36241,-34.7046 -0.2092,-44.75257 -4.78979,-30.62325 -16.11602,-56.82014 -34.61308,-80.058 -4.97573,-6.25101 -18.25564,-19.70525 -24.11405,-24.4306 -51.52865,-41.562644 -120.07728,-49.207791 -178.57177,-19.9159 -16.70161,8.36355 -31.30998,19.08716 -44.34348,32.55134 -24.75729,25.57537 -39.446344,55.44259 -45.174485,91.85316 -0.975317,6.19956 -1.154186,9.71068 -1.160835,22.78647 -0.0084,16.52833 0.460214,21.50067 3.294942,34.96189 11.815728,56.10906 53.717238,103.07525 108.396308,121.49828 14.82473,4.99491 27.82623,7.47354 45.28813,8.63385 5.08011,0.33757 20.00457,-0.2536 27.08399,-1.07282 z"
     id="path872"
     inkscape:connector-curvature="0" />
</svg>
